<svg class="svg-icon" style="width: 1.013671875em; height: 1em;vertical-align: middle;fill: currentColor;overflow: hidden;" viewBox="0 0 1038 1024" version="1.1" xmlns="http://www.w3.org/2000/svg"><path d="M212.155493 724.155493a14.422535 14.422535 0 0 1-9.374648-25.383662L413.061408 519.211268a14.422535 14.422535 0 0 1 18.749296 21.922253L221.530141 721.126761a14.422535 14.422535 0 0 1-9.374648 3.028732zM826.267042 724.155493a14.422535 14.422535 0 0 1-9.374648-3.461408L606.611831 541.566197a14.422535 14.422535 0 0 1 18.749296-22.354929l210.280563 179.560563a14.422535 14.422535 0 0 1-9.374648 25.383662zM519.211268 548.056338a83.218028 83.218028 0 0 1-58.988169-24.374084l-253.83662-239.414085 19.758873-21.056901 254.269296 239.990986a54.661408 54.661408 0 0 0 77.304789 0l254.413521-239.702536 19.758873 21.056902-254.12507 239.702535A82.496901 82.496901 0 0 1 519.211268 548.056338z" fill="" /><path d="M822.084507 749.971831H230.760563a57.690141 57.690141 0 0 1-57.69014-57.690141V317.295775a57.690141 57.690141 0 0 1 57.69014-57.690141h591.323944a57.690141 57.690141 0 0 1 57.690141 57.690141v374.985915a57.690141 57.690141 0 0 1-57.690141 57.690141zM230.760563 288.450704a28.84507 28.84507 0 0 0-28.84507 28.845071v374.985915a28.84507 28.84507 0 0 0 28.84507 28.845071h591.323944a28.84507 28.84507 0 0 0 28.84507-28.845071V317.295775a28.84507 28.84507 0 0 0-28.84507-28.845071z" fill="" /></svg>